<svg id="Layer_1" data-name="Layer 1" xmlns="http://www.w3.org/2000/svg" viewBox="0 0 512.28 512.61"><defs><style>.cls-1{fill:#004a96;}</style></defs><path class="cls-1" d="M181.11,270.84l-.5,240.9,149.94.31.49-240.9ZM301,301.07,300.63,482l-90-.19L211,300.89Z" transform="translate(0.31 0.19)"/><path class="cls-1" d="M.18,270.47l-.49,240.9,149.94.31.49-240.9ZM120.07,300.7l-.37,180.93-90-.19.37-180.92Z" transform="translate(0.31 0.19)"/><path class="cls-1" d="M66.62,44.7l-.3,144.73L21.43,144.35.19,165.51l81,81.35,81.34-81L141.38,144.6,96.31,189.49l.3-144.73a15,15,0,0,1,15-15l295.88.6a15,15,0,0,1,15,15L422,271.33l-60-.12-.49,240.9,149.94.31.49-240.9-60-.13.47-225.9A45,45,0,0,0,407.57.42L111.69-.19A45,45,0,0,0,66.62,44.7Zm415.3,256.74-.37,180.93-90-.19L392,301.26l30,.06,30,.06Z" transform="translate(0.31 0.19)"/></svg>